<?xml version="1.0" encoding="UTF-8" standalone="no"?>
<svg width="512px" height="512px" viewBox="0 0 512 512" version="1.1" xmlns="http://www.w3.org/2000/svg" xmlns:xlink="http://www.w3.org/1999/xlink" xmlns:sketch="http://www.bohemiancoding.com/sketch/ns">
    <title>512</title>
    <description>Created with Sketch (http://www.bohemiancoding.com/sketch)</description>
    <defs></defs>
    <g id="Page 1" stroke="none" stroke-width="1" fill="none" fill-rule="evenodd">
        <path d="M463.591483,232.636604 C451.976135,128.270249 363.465302,47.1165644 256,47.1165644 C148.619035,47.1165644 60.1628016,128.142922 48.4360054,232.39093 C145.401004,253.854834 164.118539,182.184049 256,182.184049 C347.700472,182.184049 373.961296,255.060022 463.591483,232.636604 Z M256,512 C114.615097,512 0,397.384903 0,256 C0,114.615097 114.615097,0 256,0 C397.384903,0 512,114.615097 512,256 C512,397.384903 397.384903,512 256,512 Z M456.635632,314.311952 C460.717083,300.244501 463.359154,285.565037 464.391881,270.443523 C363.392635,292.123144 340.522774,221.447856 256,221.447853 C171.50509,221.44785 147.119712,292.076552 47.609583,270.464937 C48.6324399,285.419517 51.2293123,299.941651 55.2357902,313.866928 C146.334485,330.578358 166.307749,262.282209 256,262.282209 C345.284085,262.282209 372.531866,331.368094 456.635632,314.311952 Z M456.635632,314.311952" id="Oval 1" fill="#000000"></path>
    </g>
</svg>