<?xml version="1.0" encoding="UTF-8" standalone="no"?>
<svg width="512px" height="512px" viewBox="0 0 512 512" version="1.1" xmlns="http://www.w3.org/2000/svg" xmlns:xlink="http://www.w3.org/1999/xlink" xmlns:sketch="http://www.bohemiancoding.com/sketch/ns">
    <title>512</title>
    <description>Created with Sketch (http://www.bohemiancoding.com/sketch)</description>
    <defs></defs>
    <g id="Page 1" stroke="none" stroke-width="1" fill="none" fill-rule="evenodd">
        <g id="square-black">
            <path d="M0,0 L0,512 L512,512 L512,0 L0,0 Z M0,0" id="Path" fill="#000000"></path>
            <path d="M430.208847,236.980705 C420.424341,149.064861 345.864828,80.7028424 255.338501,80.7028424 C164.883218,80.7028424 90.3696985,148.957603 80.491312,236.773755 C162.172422,254.85446 177.939648,194.48062 255.338501,194.48062 C332.584894,194.48062 354.706415,255.869682 430.208847,236.980705 Z M255.338501,472.310078 C136.239074,472.310078 39.6899225,375.760926 39.6899225,256.661499 C39.6899225,137.562071 136.239074,41.0129199 255.338501,41.0129199 C374.437929,41.0129199 470.98708,137.562071 470.98708,256.661499 C470.98708,375.760926 374.437929,472.310078 255.338501,472.310078 Z M424.349396,305.782161 C427.787517,293.932061 430.013137,281.566414 430.883083,268.828394 C345.803615,287.090814 326.538564,227.555558 255.338501,227.555556 C184.161911,227.555553 163.620223,287.051566 79.7951526,268.846432 C80.656784,281.443831 82.8443303,293.676946 86.2192961,305.407283 C162.958765,319.484612 179.783789,261.953488 255.338501,261.953488 C330.549385,261.953488 353.502295,320.149867 424.349396,305.782161 Z M424.349396,305.782161" id="Oval 1 copy 3" fill="#FFFFFF"></path>
        </g>
    </g>
</svg>